  <svg
              class=" hover:tw-bg-gray-300 tw-bg-gray-100 tw-shadow-sm tw-p-3  tw-text-gray-700 tw-hover:text-white tw-mx-auto  "
              xmlns="http://www.w3.org/2000/svg"
              xmlnsXlink="http://www.w3.org/1999/xlink"
              preserveAspectRatio="xMidYMid"
              fill="currentColor"
              width="60.15"
              height="59.84"
              viewBox="0 0 60.15 59.84"
            >
              <path
                d="M60.047,18.654 C58.880,22.811 54.257,23.840 49.964,23.840 C47.935,23.840 45.983,23.610 44.501,23.372 C46.801,26.022 47.731,28.103 48.642,30.498 C49.731,33.358 49.087,37.507 46.146,39.220 L10.892,58.829 C9.808,59.487 8.525,59.845 7.216,59.845 C5.375,59.845 3.626,59.151 2.294,57.888 C-0.195,55.531 -0.692,51.937 1.016,49.082 L21.628,16.857 C23.002,14.452 25.681,13.441 29.082,14.116 C29.626,14.222 33.453,15.031 37.292,17.213 C36.333,13.799 35.184,7.939 37.081,3.931 C37.962,2.071 39.393,0.796 41.335,0.142 C42.244,-0.164 43.103,-0.045 43.820,0.484 C45.321,1.591 45.866,4.441 46.054,6.767 C47.418,5.033 49.432,3.060 51.721,2.733 C53.234,2.518 54.628,3.030 55.864,4.258 C57.177,5.562 57.718,7.012 57.472,8.567 C57.124,10.769 55.172,12.691 53.435,14.001 C55.702,14.189 58.426,14.727 59.576,16.171 C60.140,16.880 60.303,17.739 60.047,18.654 ZM28.692,16.069 C28.126,15.958 27.585,15.901 27.082,15.901 C25.331,15.901 24.109,16.550 23.346,17.883 L19.755,23.496 C19.928,23.585 20.083,23.669 20.264,23.762 C22.607,24.958 25.818,26.596 28.856,30.212 C29.212,30.634 29.154,31.262 28.729,31.614 C28.542,31.770 28.314,31.846 28.088,31.846 C27.800,31.846 27.515,31.724 27.317,31.488 C24.540,28.183 21.661,26.713 19.347,25.532 C19.110,25.411 18.902,25.298 18.677,25.181 L13.139,33.840 C15.637,35.192 17.966,36.768 20.373,38.775 C20.798,39.128 20.853,39.756 20.497,40.178 C20.299,40.413 20.015,40.533 19.728,40.533 C19.501,40.533 19.272,40.457 19.085,40.300 C16.744,38.348 14.487,36.825 12.062,35.524 L2.723,50.125 C1.511,52.151 1.869,54.734 3.608,56.381 C4.636,57.355 5.893,57.854 7.216,57.854 C8.157,57.854 9.078,57.597 9.881,57.111 L45.149,37.493 C47.077,36.369 47.555,33.272 46.766,31.201 C45.544,27.989 44.381,25.559 39.538,21.236 C36.097,18.162 31.101,16.542 28.692,16.069 ZM58.003,17.407 C57.051,16.209 52.862,15.819 50.180,15.913 L45.671,16.083 L49.684,14.033 C51.165,13.276 55.097,10.764 55.492,8.255 C55.634,7.353 55.292,6.506 54.446,5.666 C53.670,4.895 52.868,4.583 52.006,4.704 C49.466,5.067 46.816,8.951 46.010,10.418 L43.990,14.088 L44.128,9.907 C44.217,7.185 43.810,2.957 42.624,2.083 C42.502,1.994 42.342,1.906 41.979,2.029 C40.554,2.508 39.545,3.408 38.897,4.776 C36.706,9.400 39.433,17.517 39.960,18.988 C40.272,19.233 40.579,19.488 40.879,19.755 C41.328,20.156 41.738,20.538 42.131,20.912 C42.209,20.913 42.286,20.903 42.366,20.923 C46.257,21.889 56.669,23.266 58.116,18.121 C58.219,17.748 58.123,17.557 58.003,17.407 Z"
                class="cls-1"
              />
            </svg>