     <svg
              class=" hover:tw-bg-gray-300 tw-bg-gray-100 tw-shadow-sm tw-p-3  tw-text-gray-700 tw-hover:text-white tw-mx-auto  "
              xmlns="http://www.w3.org/2000/svg"
              xmlnsXlink="http://www.w3.org/1999/xlink"
              preserveAspectRatio="xMidYMid"
              fill="currentColor"
              width="56"
              height="59.97"
              viewBox="0 0 56 59.97"
            >
              <path
                d="M56.000,27.980 C56.000,28.532 55.553,28.980 55.000,28.980 C54.447,28.980 54.000,28.532 54.000,27.980 C54.000,17.697 53.303,11.302 40.000,11.000 L40.000,14.994 C44.201,18.150 47.256,22.530 48.818,27.438 C48.924,27.596 49.000,27.775 49.000,27.980 C49.000,27.989 48.995,27.996 48.995,28.005 C49.651,30.247 50.000,32.592 50.000,34.977 C50.000,48.758 38.785,59.968 25.001,59.968 C11.216,59.968 -0.000,48.758 -0.000,34.977 C-0.000,32.592 0.349,30.248 1.005,28.005 C1.005,27.996 1.000,27.989 1.000,27.980 C1.000,27.775 1.077,27.595 1.182,27.437 C2.745,22.530 5.799,18.150 10.000,14.994 L10.000,8.574 L4.609,5.866 C4.285,5.703 4.074,5.377 4.059,5.015 C4.044,4.652 4.227,4.309 4.536,4.120 L11.044,0.138 C11.243,0.016 11.475,-0.032 11.706,-0.000 L39.140,3.866 C39.633,3.935 40.000,4.357 40.000,4.855 L40.000,9.005 C55.989,9.384 56.000,18.832 56.000,27.980 ZM2.000,34.977 C2.000,47.655 12.318,57.969 25.001,57.969 C37.683,57.969 48.000,47.655 48.000,34.977 C48.000,32.927 47.693,30.919 47.165,28.980 L2.812,28.980 C2.285,30.916 2.000,32.930 2.000,34.977 ZM38.000,5.725 L11.782,2.029 L7.114,4.886 L11.449,7.065 C11.492,7.086 11.520,7.124 11.559,7.151 C11.620,7.193 11.681,7.231 11.731,7.286 C11.774,7.332 11.801,7.386 11.834,7.439 C11.869,7.495 11.906,7.547 11.930,7.609 C11.955,7.676 11.961,7.746 11.972,7.818 C11.979,7.866 12.000,7.908 12.000,7.958 L12.000,15.766 C12.000,16.319 11.553,16.766 11.000,16.766 C10.992,16.766 10.986,16.761 10.979,16.761 C7.530,19.420 4.943,22.983 3.452,26.981 L46.536,26.981 C45.077,23.069 42.582,19.570 39.245,16.933 C39.164,16.953 39.087,16.982 39.000,16.982 C38.447,16.982 38.000,16.535 38.000,15.982 L38.000,5.725 Z"
                class="cls-1"
              />
            </svg>