 <svg
              class=" hover:tw-bg-gray-300 tw-bg-gray-100 tw-shadow-sm tw-p-3  tw-text-gray-700 tw-hover:text-white tw-mx-auto  "
              xmlns="http://www.w3.org/2000/svg"
              xmlnsXlink="http://www.w3.org/1999/xlink"
              preserveAspectRatio="xMidYMid"
              fill="currentColor"
              width="59.85"
              height="60.12"
              viewBox="0 0 59.85 60.12"
            >
              <path
                d="M58.319,11.039 C59.173,13.834 64.288,33.106 48.621,48.847 C39.552,57.957 29.302,60.073 21.738,60.073 C16.221,60.073 12.144,58.951 10.981,58.592 C9.746,59.587 8.259,60.116 6.755,60.116 C5.017,60.116 3.279,59.451 1.955,58.122 C-0.530,55.619 -0.644,51.657 1.551,48.983 C0.552,45.580 -4.028,26.780 11.312,11.370 C26.649,-4.040 45.364,0.560 48.752,1.563 C51.416,-0.646 55.359,-0.532 57.851,1.970 C59.133,3.257 59.838,4.970 59.838,6.790 C59.838,8.361 59.286,9.833 58.319,11.039 ZM56.440,3.388 C54.572,1.513 51.533,1.515 49.667,3.388 C49.630,3.424 49.584,3.440 49.544,3.470 C49.485,3.514 49.429,3.561 49.362,3.591 C49.302,3.618 49.239,3.626 49.175,3.640 C49.114,3.654 49.056,3.674 48.992,3.676 C48.917,3.678 48.844,3.659 48.770,3.644 C48.722,3.635 48.675,3.641 48.628,3.624 C48.428,3.553 28.657,-3.224 12.723,12.787 C-3.243,28.826 3.531,48.658 3.601,48.856 C3.619,48.905 3.613,48.955 3.622,49.005 C3.636,49.077 3.655,49.147 3.653,49.220 C3.651,49.286 3.631,49.347 3.616,49.411 C3.602,49.472 3.595,49.534 3.570,49.592 C3.539,49.663 3.490,49.721 3.444,49.783 C3.416,49.821 3.401,49.865 3.367,49.899 C1.504,51.777 1.503,54.830 3.367,56.705 C5.234,58.582 8.274,58.580 10.143,56.705 C10.506,56.340 11.070,56.329 11.462,56.643 C13.297,57.233 31.991,62.714 47.210,47.430 C62.462,32.106 56.962,13.337 56.377,11.515 C56.067,11.122 56.078,10.557 56.440,10.192 C57.345,9.284 57.843,8.076 57.843,6.790 C57.843,5.505 57.345,4.297 56.440,3.388 ZM41.879,8.999 L43.875,8.999 L43.875,11.001 L41.879,11.001 L41.879,8.999 ZM37.888,16.016 L39.884,16.016 L39.884,18.019 L37.888,18.019 L37.888,16.016 ZM33.897,8.999 L35.893,8.999 L35.893,11.001 L33.897,11.001 L33.897,8.999 Z"
                class="cls-1"
              />
            </svg>