            <svg
              class=" hover:tw-bg-gray-300 tw-bg-gray-100 tw-shadow-sm tw-p-3  tw-text-gray-700 tw-hover:text-white tw-mx-auto  "
              xmlns="http://www.w3.org/2000/svg"
              xmlnsXlink="http://www.w3.org/1999/xlink"
              preserveAspectRatio="xMidYMid"
              fill="currentColor"
              width="60"
              height="60"
              viewBox="0 0 60 60"
            >
              <path
                d="M38.228,35.482 C40.497,39.503 41.019,45.054 41.019,49.179 C41.019,55.247 36.180,59.998 30.002,59.998 C23.825,59.998 18.986,55.247 18.986,49.179 C18.986,45.049 19.507,39.495 21.772,35.482 C9.501,33.931 0.002,29.073 0.002,23.665 C0.002,10.615 13.460,-0.001 30.002,-0.001 C46.543,-0.001 59.999,10.615 59.999,23.665 C59.999,29.073 50.499,33.932 38.228,35.482 ZM20.989,49.179 C20.989,54.125 24.948,57.999 30.002,57.999 C35.057,57.999 39.016,54.125 39.016,49.179 C39.016,45.778 38.620,39.552 36.047,35.722 C34.081,35.902 32.059,35.999 30.002,35.999 C27.945,35.999 25.922,35.902 23.955,35.722 C21.385,39.541 20.989,45.774 20.989,49.179 ZM30.002,1.999 C14.565,1.999 2.005,11.719 2.005,23.665 C2.005,28.444 14.234,34.000 30.002,34.000 C45.768,34.000 57.996,28.444 57.996,23.665 C57.996,11.719 45.438,1.999 30.002,1.999 Z"
                class="cls-1"
              />
            </svg>