    <svg
              class=" hover:tw-bg-gray-300 tw-bg-gray-100 tw-shadow-sm  tw-text-gray-700 tw-hover:text-white tw-mx-auto  "
              xmlns="http://www.w3.org/2000/svg"
              xmlnsXlink="http://www.w3.org/1999/xlink"
              preserveAspectRatio="xMidYMid"
              fill="currentColor"
              width="60"
              height="59.91"
              viewBox="0 0 60 59.91"
            >
              <path
                d="M47.060,59.894 C43.018,59.894 41.641,59.053 40.635,58.438 C40.066,58.091 39.754,57.900 39.000,57.900 C38.143,57.900 37.615,58.148 36.815,58.523 C35.790,59.004 34.514,59.602 32.118,59.887 C32.078,59.892 32.038,59.894 31.999,59.894 C31.499,59.894 31.067,59.521 31.007,59.014 C30.941,58.466 31.333,57.970 31.882,57.905 C33.956,57.659 35.023,57.159 35.965,56.716 C36.855,56.299 37.696,55.904 39.000,55.904 C40.317,55.904 41.010,56.328 41.679,56.737 C42.526,57.254 43.581,57.898 47.060,57.898 C52.132,57.898 58.000,45.321 58.000,37.115 C58.000,29.375 54.228,23.972 48.825,23.972 C46.986,23.972 45.849,24.804 44.531,25.767 C43.123,26.795 41.527,27.963 39.000,27.963 C36.452,27.963 34.960,26.738 33.645,25.657 C32.747,24.921 31.900,24.227 30.758,23.942 C30.222,23.809 29.896,23.266 30.029,22.732 C30.164,22.197 30.706,21.876 31.242,22.005 C32.822,22.399 33.934,23.312 34.915,24.116 C35.896,24.923 36.776,25.630 38.049,25.872 C38.539,19.173 43.412,17.144 43.630,17.058 C44.142,16.852 44.725,17.103 44.929,17.615 C45.133,18.126 44.885,18.705 44.374,18.910 C44.186,18.988 40.512,20.578 40.048,25.847 C41.333,25.598 42.292,24.930 43.350,24.156 C44.748,23.134 46.332,21.976 48.825,21.976 C55.404,21.976 60.000,28.201 60.000,37.115 C60.000,45.697 53.952,59.894 47.060,59.894 ZM16.000,59.894 C7.178,59.894 0.000,52.235 0.000,42.821 C0.000,38.512 2.338,33.513 4.599,28.678 C5.559,26.626 6.465,24.687 7.188,22.827 C8.594,19.220 8.999,15.856 9.003,15.823 C9.032,13.992 10.367,10.472 15.038,10.045 C15.426,2.274 20.409,0.182 20.630,0.094 C21.146,-0.111 21.726,0.140 21.929,0.651 C22.133,1.162 21.885,1.739 21.376,1.946 C21.195,2.021 17.387,3.702 17.035,10.055 C21.603,10.515 22.944,14.003 22.997,15.910 L22.997,15.909 C23.001,15.909 23.411,19.248 24.805,22.826 C25.526,24.679 26.432,26.612 27.389,28.657 C29.656,33.499 32.000,38.506 32.000,42.821 C32.000,52.235 24.822,59.894 16.000,59.894 ZM25.577,29.502 C24.647,27.517 23.686,25.466 22.940,23.550 C21.439,19.693 21.021,16.201 21.004,16.053 C20.981,15.564 20.702,11.998 16.000,11.998 C11.126,11.998 10.999,15.794 10.996,15.957 C10.973,16.199 10.555,19.693 9.052,23.550 C8.306,25.471 7.343,27.530 6.411,29.521 C4.242,34.159 2.000,38.954 2.000,42.821 C2.000,51.135 8.280,57.898 16.000,57.898 C23.720,57.898 30.000,51.135 30.000,42.821 C30.000,38.950 27.751,34.146 25.577,29.502 Z"
                class="cls-1"
              />
            </svg>
         