  <svg
              class=" hover:tw-bg-gray-300 tw-bg-gray-100 tw-shadow-sm tw-p-3  tw-text-gray-700 tw-hover:text-white tw-mx-auto  "
              xmlns="http://www.w3.org/2000/svg"
              xmlnsXlink="http://www.w3.org/1999/xlink"
              preserveAspectRatio="xMidYMid"
              fill="currentColor"
              width="59.91"
              height="60"
              viewBox="0 0 59.91 60"
            >
              <path
                d="M58.912,1.999 C55.226,1.999 52.504,2.956 50.821,4.839 C49.110,6.757 48.895,9.199 48.894,10.300 C54.055,11.439 57.913,15.788 57.913,20.976 C57.913,23.069 57.546,25.653 56.724,28.470 C56.713,28.523 56.700,28.573 56.681,28.624 C55.184,33.665 52.214,39.441 47.162,44.539 C36.998,54.797 21.461,59.999 0.982,59.999 C0.508,59.999 0.099,59.666 0.004,59.201 C-0.092,58.737 0.152,58.268 0.587,58.081 C19.671,49.847 31.716,36.691 34.503,21.034 L34.546,20.797 C34.565,20.695 34.592,20.591 34.613,20.489 C34.616,20.468 34.622,20.450 34.626,20.430 C35.690,15.337 39.703,9.999 46.222,9.999 C46.450,9.999 46.673,10.019 46.898,10.031 C46.932,8.543 47.298,5.800 49.313,3.528 C51.390,1.187 54.619,-0.001 58.912,-0.001 C59.464,-0.001 59.911,0.446 59.911,0.999 C59.911,1.552 59.464,1.999 58.912,1.999 ZM5.723,57.901 C23.310,57.157 36.760,52.198 45.744,43.131 C50.428,38.403 53.226,33.087 54.668,28.424 C49.786,20.058 39.146,21.090 36.443,21.509 C33.717,36.560 22.880,49.350 5.723,57.901 ZM46.222,11.999 C41.368,11.999 38.219,15.504 36.947,19.426 C40.643,18.991 49.995,18.705 55.353,25.808 C55.738,24.020 55.915,22.379 55.915,20.976 C55.915,16.027 51.567,11.999 46.222,11.999 Z"
                class="cls-1"
              />
            </svg>