 <svg
              class=" hover:tw-bg-gray-300 tw-bg-gray-100 tw-shadow-sm tw-p-3  tw-text-gray-700 tw-hover:text-white tw-mx-auto  "
              xmlns="http://www.w3.org/2000/svg"
              xmlnsXlink="http://www.w3.org/1999/xlink"
              preserveAspectRatio="xMidYMid"
              fill="currentColor"
              width="56"
              height="60"
              viewBox="0 0 56 60"
            >
              <path
                d="M56.000,23.609 C56.000,24.553 55.566,25.105 55.203,25.402 C54.719,25.798 54.044,26.000 53.198,26.000 C52.995,26.000 52.781,25.959 52.572,25.936 C53.632,28.884 54.199,31.973 54.199,35.162 C54.199,46.064 47.843,55.783 38.005,59.921 C37.881,59.973 37.750,59.999 37.617,59.999 L18.516,59.999 C18.383,59.999 18.251,59.973 18.128,59.921 C8.289,55.782 1.932,46.064 1.932,35.162 C1.932,31.967 2.499,28.873 3.559,25.923 C3.305,25.955 3.048,26.000 2.803,26.000 C1.957,26.000 1.281,25.798 0.797,25.402 C0.434,25.105 0.000,24.552 0.000,23.609 C0.000,20.358 6.219,13.422 12.373,10.000 L12.066,10.000 C11.758,10.000 11.467,9.858 11.278,9.615 C11.088,9.373 11.021,9.056 11.096,8.758 L13.096,0.757 C13.207,0.312 13.607,-0.001 14.066,-0.001 L42.066,-0.001 C42.525,-0.001 42.925,0.312 43.036,0.757 L44.990,8.571 C45.052,8.701 45.086,8.846 45.086,9.000 C45.086,9.552 44.638,10.000 44.086,10.000 C44.081,9.999 44.073,9.999 44.066,10.000 L43.627,10.000 C49.781,13.422 56.000,20.358 56.000,23.609 ZM18.720,58.000 L37.413,58.000 C46.402,54.130 52.199,45.188 52.199,35.162 C52.199,31.738 51.516,28.434 50.202,25.325 C47.755,24.366 45.111,22.532 42.689,20.836 C40.871,19.563 38.621,17.987 37.757,17.893 C37.426,18.056 36.629,18.807 35.983,19.414 C33.933,21.340 31.126,23.979 28.066,23.979 C24.982,23.979 22.134,21.342 20.054,19.416 C19.395,18.807 18.580,18.052 18.246,17.892 C17.385,17.983 15.130,19.563 13.309,20.837 C10.937,22.498 8.352,24.291 5.948,25.264 C4.620,28.390 3.932,31.714 3.932,35.162 C3.932,45.188 9.730,54.130 18.720,58.000 ZM41.285,2.000 L14.847,2.000 L13.347,8.000 L42.785,8.000 L41.285,2.000 ZM37.368,10.000 L18.631,10.000 C12.312,10.000 2.000,20.511 2.000,23.609 C2.000,23.738 2.022,23.820 2.063,23.855 C2.093,23.878 2.269,23.999 2.803,23.999 C5.306,23.999 9.108,21.338 12.161,19.198 C15.181,17.085 16.956,15.888 18.320,15.888 C19.187,15.888 20.025,16.664 21.414,17.950 C23.249,19.650 25.765,21.979 28.066,21.979 C30.334,21.979 32.806,19.654 34.613,17.955 C35.984,16.667 36.812,15.888 37.680,15.888 C39.044,15.888 40.818,17.085 43.837,19.198 C46.891,21.338 50.693,23.999 53.198,23.999 C53.732,23.999 53.908,23.878 53.938,23.855 C53.978,23.820 54.000,23.738 54.000,23.609 C54.000,20.512 43.688,10.000 37.368,10.000 ZM27.999,43.000 C30.756,43.000 33.000,45.243 33.000,47.999 C33.000,50.756 30.756,53.000 27.999,53.000 C25.243,53.000 22.999,50.756 22.999,47.999 C22.999,45.243 25.243,43.000 27.999,43.000 ZM27.999,50.999 C29.654,50.999 31.000,49.654 31.000,47.999 C31.000,46.345 29.654,45.000 27.999,45.000 C26.345,45.000 24.999,46.345 24.999,47.999 C24.999,49.654 26.345,50.999 27.999,50.999 ZM38.000,32.999 C40.757,32.999 43.000,35.243 43.000,38.000 C43.000,40.756 40.757,43.000 38.000,43.000 C35.243,43.000 33.000,40.756 33.000,38.000 C33.000,35.243 35.243,32.999 38.000,32.999 ZM38.000,40.999 C39.654,40.999 41.000,39.654 41.000,38.000 C41.000,36.345 39.654,35.000 38.000,35.000 C36.345,35.000 35.000,36.345 35.000,38.000 C35.000,39.654 36.345,40.999 38.000,40.999 Z"
                class="cls-1"
              />
            </svg>